<svg width="47" height="44" viewBox="0 0 47 44" fill="none" xmlns="http://www.w3.org/2000/svg">
<g id="Frame 13">
<rect width="47" height="44" rx="5" fill="#2F2F2F"/>
<path id="Vector" d="M31.5528 27.8989C31.2344 28.6368 30.8575 29.316 30.4208 29.9404C29.8255 30.7917 29.3381 31.381 28.9625 31.7082C28.3802 32.2453 27.7564 32.5204 27.0883 32.536C26.6087 32.536 26.0304 32.3991 25.3571 32.1215C24.6816 31.8451 24.0609 31.7082 23.4933 31.7082C22.8981 31.7082 22.2596 31.8451 21.5768 32.1215C20.8929 32.3991 20.3419 32.5439 19.9207 32.5582C19.28 32.5856 18.6415 32.3027 18.0041 31.7082C17.5973 31.3523 17.0885 30.7422 16.4789 29.8779C15.8249 28.9549 15.2872 27.8846 14.866 26.6643C14.4148 25.3463 14.1887 24.07 14.1887 22.8344C14.1887 21.419 14.4936 20.1983 15.1043 19.1753C15.5843 18.3536 16.2229 17.7054 17.0221 17.2296C17.8213 16.7537 18.6848 16.5113 19.6147 16.4957C20.1236 16.4957 20.7908 16.6536 21.62 16.9639C22.4469 17.2752 22.9779 17.4331 23.2106 17.4331C23.3847 17.4331 23.9745 17.2485 24.9743 16.8805C25.9199 16.5392 26.7179 16.3978 27.3717 16.4535C29.1432 16.5969 30.4741 17.2974 31.3592 18.5593C29.7748 19.5222 28.9911 20.8708 29.0067 22.6009C29.021 23.9485 29.5084 25.0699 30.4663 25.9603C30.9004 26.3736 31.3852 26.693 31.9245 26.9198C31.8076 27.2601 31.6841 27.586 31.5528 27.8989ZM27.4899 11.8625C27.4899 12.9188 27.1052 13.905 26.3384 14.8178C25.413 15.903 24.2937 16.53 23.0799 16.4311C23.0644 16.3044 23.0554 16.171 23.0554 16.0309C23.0554 15.0169 23.4955 13.9317 24.277 13.0444C24.6672 12.5952 25.1634 12.2216 25.7652 11.9237C26.3657 11.6301 26.9337 11.4678 27.4678 11.44C27.4834 11.5812 27.4899 11.7224 27.4899 11.8625V11.8625Z" fill="white"/>
</g>
</svg>
