<svg width="26" height="26" viewBox="0 0 26 26" fill="none" xmlns="http://www.w3.org/2000/svg">
<g id="price indicator/bullish">
<circle id="Ellipse 1" cx="13" cy="13" r="13" transform="rotate(-180 13 13)" fill="#FFD8D8"/>
<g id="Vector">
<path d="M13.8137 18.8608C13.4149 19.4191 12.5851 19.4191 12.1863 18.8608L9.12946 14.5812C8.65669 13.9194 9.12982 13 9.94319 13H16.0568C16.8702 13 17.3433 13.9194 16.8705 14.5812L13.8137 18.8608Z" fill="#8C1010"/>
<path d="M15.3094 12.4667C15.3094 13.019 14.8617 13.4667 14.3094 13.4667H11.6906C11.1383 13.4667 10.6906 13.019 10.6906 12.4667L10.6906 7C10.6906 6.44772 11.1383 6 11.6906 6H14.3094C14.8617 6 15.3094 6.44771 15.3094 7L15.3094 12.4667Z" fill="#8C1010"/>
</g>
</g>
</svg>
