<svg width="26" height="26" viewBox="0 0 26 26" fill="none" xmlns="http://www.w3.org/2000/svg">
<g id="price indicator/bullish">
<circle id="Ellipse 1" cx="13" cy="13" r="13" fill="#E0FFD8"/>
<g id="Vector">
<path d="M12.1863 7.13923C12.5851 6.58088 13.4149 6.58088 13.8137 7.13923L16.8705 11.4188C17.3433 12.0806 16.8702 13 16.0568 13H9.94319C9.12982 13 8.65669 12.0806 9.12946 11.4188L12.1863 7.13923Z" fill="#108C15"/>
<path d="M10.6906 13.5333C10.6906 12.981 11.1383 12.5333 11.6906 12.5333H14.3094C14.8617 12.5333 15.3094 12.981 15.3094 13.5333V19C15.3094 19.5523 14.8617 20 14.3094 20H11.6906C11.1383 20 10.6906 19.5523 10.6906 19V13.5333Z" fill="#108C15"/>
</g>
</g>
</svg>
