<svg width="17" height="17" viewBox="0 0 17 17" fill="none" xmlns="http://www.w3.org/2000/svg">
<g id="&#240;&#159;&#166;&#134; icon &#34;center focus&#34;">
<path id="Vector" d="M1.7 16.4052H5.95V15.3115H1.7C1.54977 15.3113 1.40573 15.2537 1.2995 15.1511C1.19327 15.0486 1.13351 14.9096 1.13333 14.7647V10.6634H0V14.7647C0.000506198 15.1996 0.179775 15.6166 0.498478 15.9241C0.81718 16.2317 1.24929 16.4047 1.7 16.4052Z" fill="#666666"/>
<path id="Vector_2" d="M1.13333 1.64052C1.13351 1.49554 1.19327 1.35655 1.2995 1.25403C1.40573 1.15152 1.54977 1.09385 1.7 1.09368H5.95V0H1.7C1.24929 0.000488486 0.81718 0.173485 0.498478 0.481036C0.179775 0.788586 0.000506198 1.20557 0 1.64052V5.74181H1.13333V1.64052Z" fill="#666666"/>
<path id="Vector_3" d="M15.3 0H11.05V1.09368H15.3C15.4502 1.09385 15.5943 1.15152 15.7005 1.25403C15.8067 1.35655 15.8665 1.49554 15.8667 1.64052V5.74181H17V1.64052C16.9995 1.20557 16.8202 0.788586 16.5015 0.481036C16.1828 0.173485 15.7507 0.000488486 15.3 0Z" fill="#666666"/>
<path id="Vector_4" d="M15.8667 14.7647C15.8665 14.9096 15.8067 15.0486 15.7005 15.1511C15.5943 15.2537 15.4502 15.3113 15.3 15.3115H11.05V16.4052H15.3C15.7507 16.4047 16.1828 16.2317 16.5015 15.9241C16.8202 15.6166 16.9995 15.1996 17 14.7647V10.6634H15.8667V14.7647Z" fill="#666666"/>
</g>
</svg>
